<mxfile host="app.diagrams.net" agent="Mozilla/5.0 (Windows NT 10.0; Win64; x64) AppleWebKit/537.36 (KHTML, like Gecko) Chrome/128.0.0.0 Safari/537.36 OPR/114.0.0.0" version="25.0.1">
  <diagram name="Page-1" id="4Y_P6vZuUkGtKaATaK-g">
    <mxGraphModel>
      <root>
        <mxCell id="0" />
        <mxCell id="1" parent="0" />
        <mxCell id="2" value="Database Server" style="whiteSpace=wrap;strokeWidth=2;" vertex="1" parent="1">
          <mxGeometry x="20" y="757" width="313" height="98" as="geometry" />
        </mxCell>
        <mxCell id="3" value="Worker" style="whiteSpace=wrap;strokeWidth=2;" vertex="1" parent="1">
          <mxGeometry x="379" y="391" width="326" height="88" as="geometry" />
        </mxCell>
        <mxCell id="4" value="App Server" style="whiteSpace=wrap;strokeWidth=2;" vertex="1" parent="1">
          <mxGeometry x="359" y="366" width="366" height="138" as="geometry" />
        </mxCell>
        <mxCell id="5" value="Web Server" style="whiteSpace=wrap;strokeWidth=2;" vertex="1" parent="1">
          <mxGeometry x="8" y="8" width="331" height="676" as="geometry" />
        </mxCell>
        <mxCell id="6" value="Web Server" style="ellipse;aspect=fixed;strokeWidth=2;whiteSpace=wrap;" vertex="1" parent="1">
          <mxGeometry x="138" y="33" width="95" height="95" as="geometry" />
        </mxCell>
        <mxCell id="7" value="App Server" style="ellipse;aspect=fixed;strokeWidth=2;whiteSpace=wrap;" vertex="1" parent="1">
          <mxGeometry x="140" y="201" width="92" height="92" as="geometry" />
        </mxCell>
        <mxCell id="8" value="Database" style="ellipse;aspect=fixed;strokeWidth=2;whiteSpace=wrap;" vertex="1" parent="1">
          <mxGeometry x="147" y="577" width="82" height="82" as="geometry" />
        </mxCell>
        <mxCell id="9" value="API" style="ellipse;aspect=fixed;strokeWidth=2;whiteSpace=wrap;" vertex="1" parent="1">
          <mxGeometry x="414" y="416" width="38" height="38" as="geometry" />
        </mxCell>
        <mxCell id="10" value="DB 1" style="ellipse;aspect=fixed;strokeWidth=2;whiteSpace=wrap;" vertex="1" parent="1">
          <mxGeometry x="55" y="782" width="48" height="48" as="geometry" />
        </mxCell>
        <mxCell id="11" value="DB 2" style="ellipse;aspect=fixed;strokeWidth=2;whiteSpace=wrap;" vertex="1" parent="1">
          <mxGeometry x="153" y="782" width="48" height="48" as="geometry" />
        </mxCell>
        <mxCell id="12" value="DB 3" style="ellipse;aspect=fixed;strokeWidth=2;whiteSpace=wrap;" vertex="1" parent="1">
          <mxGeometry x="250" y="782" width="48" height="48" as="geometry" />
        </mxCell>
        <mxCell id="13" value="Request" style="curved=1;startArrow=none;endArrow=block;exitX=0;exitY=0.88;entryX=0;entryY=0.13;" edge="1" parent="1" source="6" target="7">
          <mxGeometry relative="1" as="geometry">
            <Array as="points">
              <mxPoint x="74" y="165" />
            </Array>
          </mxGeometry>
        </mxCell>
        <mxCell id="14" value="Query DB" style="curved=1;startArrow=none;endArrow=block;exitX=0;exitY=0.88;entryX=0;entryY=0.16;" edge="1" parent="1" source="7" target="8">
          <mxGeometry relative="1" as="geometry">
            <Array as="points">
              <mxPoint x="77" y="330" />
              <mxPoint x="77" y="541" />
            </Array>
          </mxGeometry>
        </mxCell>
        <mxCell id="15" value="Request" style="curved=1;startArrow=none;endArrow=block;exitX=0.99;exitY=0.03;entryX=1;entryY=0.98;" edge="1" parent="1" source="7" target="6">
          <mxGeometry relative="1" as="geometry">
            <Array as="points">
              <mxPoint x="273" y="165" />
            </Array>
          </mxGeometry>
        </mxCell>
        <mxCell id="16" value="Query" style="curved=1;startArrow=none;endArrow=block;exitX=0;exitY=0.8;entryX=0.49;entryY=0.01;" edge="1" parent="1" source="8" target="10">
          <mxGeometry relative="1" as="geometry">
            <Array as="points">
              <mxPoint x="79" y="684" />
            </Array>
          </mxGeometry>
        </mxCell>
        <mxCell id="17" value="Query" style="curved=1;startArrow=none;endArrow=block;exitX=0.41;exitY=1;entryX=0.49;entryY=0.01;" edge="1" parent="1" source="8" target="11">
          <mxGeometry relative="1" as="geometry">
            <Array as="points">
              <mxPoint x="176" y="684" />
            </Array>
          </mxGeometry>
        </mxCell>
        <mxCell id="18" value="Query" style="curved=1;startArrow=none;endArrow=block;exitX=1;exitY=0.88;entryX=0.5;entryY=0.01;" edge="1" parent="1" source="8" target="12">
          <mxGeometry relative="1" as="geometry">
            <Array as="points">
              <mxPoint x="274" y="684" />
            </Array>
          </mxGeometry>
        </mxCell>
        <mxCell id="19" value="Communicate" style="curved=1;startArrow=none;endArrow=block;exitX=0.49;exitY=1;entryX=1;entryY=0;" edge="1" parent="1" source="9" target="8">
          <mxGeometry relative="1" as="geometry">
            <Array as="points">
              <mxPoint x="433" y="504" />
              <mxPoint x="265" y="541" />
            </Array>
          </mxGeometry>
        </mxCell>
        <mxCell id="20" value="Process Data" style="curved=1;startArrow=none;endArrow=block;" edge="1" parent="1" source="7" target="3">
          <mxGeometry relative="1" as="geometry">
            <Array as="points" />
          </mxGeometry>
        </mxCell>
        <mxCell id="21" value="Fetch Data" style="curved=1;startArrow=none;endArrow=block;" edge="1" parent="1" source="3" target="9">
          <mxGeometry relative="1" as="geometry">
            <Array as="points" />
          </mxGeometry>
        </mxCell>
        <mxCell id="22" value="Process Data" style="curved=1;startArrow=none;endArrow=block;" edge="1" parent="1" source="9" target="3">
          <mxGeometry relative="1" as="geometry">
            <Array as="points" />
          </mxGeometry>
        </mxCell>
        <mxCell id="23" value="Communicate" style="curved=1;startArrow=none;endArrow=block;" edge="1" parent="1" source="3" target="7">
          <mxGeometry relative="1" as="geometry">
            <Array as="points" />
          </mxGeometry>
        </mxCell>
      </root>
    </mxGraphModel>
  </diagram>
</mxfile>
